<svg id="visual" viewBox="0 0 900 600" width="900" height="600" xmlns="http://www.w3.org/2000/svg" xmlns:xlink="http://www.w3.org/1999/xlink" version="1.1"><rect x="0" y="0" width="900" height="600" fill="#4261af"></rect><path d="M0 74L21.5 93.5C43 113 86 152 128.8 170.7C171.7 189.3 214.3 187.7 257.2 177.7C300 167.7 343 149.3 385.8 136.3C428.7 123.3 471.3 115.7 514.2 111C557 106.3 600 104.7 642.8 106.2C685.7 107.7 728.3 112.3 771.2 111C814 109.7 857 102.3 878.5 98.7L900 95L900 0L878.5 0C857 0 814 0 771.2 0C728.3 0 685.7 0 642.8 0C600 0 557 0 514.2 0C471.3 0 428.7 0 385.8 0C343 0 300 0 257.2 0C214.3 0 171.7 0 128.8 0C86 0 43 0 21.5 0L0 0Z" fill="#02061b" stroke-linecap="round" stroke-linejoin="miter"></path></svg>